<?xml version="1.0" encoding="UTF-8"?>
<svg xmlns="http://www.w3.org/2000/svg" viewBox="0 0 1200 630" width="1200" height="630">
  <defs>
    <linearGradient id="bg" x1="0" y1="0" x2="1" y2="1">
      <stop offset="0" stop-color="#FFF8F0"/>
      <stop offset="0.55" stop-color="#FFE5D1"/>
      <stop offset="1" stop-color="#FFD1B0"/>
    </linearGradient>
    <radialGradient id="cheek" cx="50%" cy="50%" r="50%">
      <stop offset="0%" stop-color="#FFB3C6" stop-opacity="0.85"/>
      <stop offset="100%" stop-color="#FFB3C6" stop-opacity="0"/>
    </radialGradient>
  </defs>

  <!-- background -->
  <rect width="1200" height="630" fill="url(#bg)"/>

  <!-- 데코 — 구름·해·하트 -->
  <g opacity="0.9">
    <!-- 좌상단 해 -->
    <g transform="translate(120 100)">
      <g stroke="#4A3F35" stroke-width="3" stroke-linecap="round" fill="#FFD668">
        <line x1="0" y1="-58" x2="0" y2="-38"/>
        <line x1="0" y1="38" x2="0" y2="58"/>
        <line x1="-58" y1="0" x2="-38" y2="0"/>
        <line x1="38" y1="0" x2="58" y2="0"/>
        <line x1="-40" y1="-40" x2="-26" y2="-26"/>
        <line x1="26" y1="26" x2="40" y2="40"/>
        <line x1="40" y1="-40" x2="26" y2="-26"/>
        <line x1="-26" y1="26" x2="-40" y2="40"/>
        <circle cx="0" cy="0" r="32"/>
      </g>
      <circle cx="-9" cy="-3" r="2.6" fill="#4A3F35"/>
      <circle cx="9" cy="-3" r="2.6" fill="#4A3F35"/>
      <path d="M-10 8 Q0 16 10 8" stroke="#4A3F35" stroke-width="2.5" fill="none" stroke-linecap="round"/>
    </g>

    <!-- 우상단 구름 -->
    <g transform="translate(900 90)">
      <ellipse cx="0" cy="20" rx="40" ry="32" fill="#fff" stroke="#4A3F35" stroke-width="3"/>
      <ellipse cx="48" cy="6" rx="48" ry="42" fill="#fff" stroke="#4A3F35" stroke-width="3"/>
      <ellipse cx="100" cy="22" rx="34" ry="28" fill="#fff" stroke="#4A3F35" stroke-width="3"/>
      <rect x="-26" y="14" width="148" height="28" fill="#fff"/>
    </g>

    <!-- 우하단 하트 -->
    <g transform="translate(1100 510) scale(2.4)">
      <path fill="#FFB3C6" stroke="#4A3F35" stroke-width="1.5"
            d="M12 21.35l-1.45-1.32C5.4 15.36 2 12.28 2 8.5 2 5.42 4.42 3 7.5 3c1.74 0 3.41.81 4.5 2.09C13.09 3.81 14.76 3 16.5 3 19.58 3 22 5.42 22 8.5c0 3.78-3.4 6.86-8.55 11.54L12 21.35z"/>
    </g>

    <!-- 별들 -->
    <g fill="#FFD668" stroke="#4A3F35" stroke-width="2" stroke-linejoin="round">
      <polygon transform="translate(640 80) scale(0.9)"
        points="12 2 15.09 8.26 22 9.27 17 14.14 18.18 21.02 12 17.77 5.82 21.02 7 14.14 2 9.27 8.91 8.26 12 2"/>
      <polygon transform="translate(1080 200) scale(0.7)"
        points="12 2 15.09 8.26 22 9.27 17 14.14 18.18 21.02 12 17.77 5.82 21.02 7 14.14 2 9.27 8.91 8.26 12 2"/>
    </g>
  </g>

  <!-- 좌측 마스코트 코코 -->
  <g transform="translate(80 200) scale(1.4)">
    <ellipse cx="68" cy="58" rx="26" ry="28" fill="#FFB088" stroke="#4A3F35" stroke-width="3"/>
    <ellipse cx="68" cy="58" rx="13" ry="14" fill="#FFD1B0"/>
    <ellipse cx="172" cy="58" rx="26" ry="28" fill="#FFB088" stroke="#4A3F35" stroke-width="3"/>
    <ellipse cx="172" cy="58" rx="13" ry="14" fill="#FFD1B0"/>
    <ellipse cx="120" cy="125" rx="86" ry="78" fill="#FFB088" stroke="#4A3F35" stroke-width="3.5"/>
    <ellipse cx="120" cy="155" rx="42" ry="32" fill="#FFE5D1"/>
    <circle cx="62" cy="148" r="14" fill="url(#cheek)"/>
    <circle cx="178" cy="148" r="14" fill="url(#cheek)"/>
    <ellipse cx="92" cy="118" rx="6" ry="8" fill="#4A3F35"/>
    <ellipse cx="148" cy="118" rx="6" ry="8" fill="#4A3F35"/>
    <circle cx="94" cy="115" r="2" fill="#fff"/>
    <circle cx="150" cy="115" r="2" fill="#fff"/>
    <ellipse cx="120" cy="143" rx="7" ry="5" fill="#4A3F35"/>
    <path d="M120 150 Q120 158 110 160 M120 150 Q120 158 130 160" stroke="#4A3F35" stroke-width="2.4" fill="none" stroke-linecap="round"/>
    <path d="M40 200 Q60 220 90 215 Q110 210 110 195" stroke="#5BB893" stroke-width="4" fill="none" stroke-linecap="round"/>
    <circle cx="110" cy="195" r="8" fill="#A8E6CF" stroke="#4A3F35" stroke-width="2"/>
    <g transform="translate(196 100) rotate(-10)">
      <ellipse cx="0" cy="0" rx="18" ry="14" fill="#FFB088" stroke="#4A3F35" stroke-width="3"/>
      <circle cx="-6" cy="-2" r="3" fill="#FFE5D1"/>
      <circle cx="6" cy="-2" r="3" fill="#FFE5D1"/>
    </g>
    <g transform="translate(80 75) rotate(-20)">
      <rect x="-14" y="-5" width="28" height="10" rx="5" fill="#FFEEB0" stroke="#4A3F35" stroke-width="2"/>
      <circle cx="-6" cy="0" r="1.2" fill="#4A3F35"/>
      <circle cx="6" cy="0" r="1.2" fill="#4A3F35"/>
    </g>
  </g>

  <!-- 우측 텍스트 -->
  <g font-family="'Apple SD Gothic Neo', 'Malgun Gothic', 'Noto Sans CJK KR', sans-serif" fill="#4A3F35">
    <!-- 배지 -->
    <g transform="translate(490 140)">
      <rect x="0" y="0" width="430" height="48" rx="24" fill="#FFEEB0" stroke="#FFD668" stroke-width="2"/>
      <text x="22" y="32" font-size="20" font-weight="700" fill="#B88C20">⭐ 야간 20시 · 토·일·공휴일 진료 (수요일 정기휴무)</text>
    </g>

    <!-- 메인 헤드라인 -->
    <text x="490" y="265" font-size="68" font-weight="800">엠코소아청소년과의원</text>
    <text x="490" y="335" font-size="48" font-weight="600" fill="#7A6B5D">상봉동 평생 주치의</text>

    <!-- 강조 -->
    <text x="490" y="430" font-size="42" font-weight="700" fill="#F87C45">유신 원장님이 직접 진료해요 🌷</text>

    <!-- 서브 인포 -->
    <text x="490" y="495" font-size="28" font-weight="600" fill="#7A6B5D">📞 02-433-5275</text>
    <text x="490" y="535" font-size="26" font-weight="500" fill="#7A6B5D">🚇 망우역·상봉역 도보 5분</text>

    <!-- URL -->
    <text x="490" y="590" font-size="32" font-weight="800" fill="#F87C45">emcokids.co.kr</text>
  </g>
</svg>
